<?xml version="1.0" encoding="utf-8"?>
<!-- Generator: Adobe Illustrator 27.8.0, SVG Export Plug-In . SVG Version: 6.00 Build 0)  -->
<svg version="1.1" id="Layer_1" xmlns="http://www.w3.org/2000/svg" xmlns:xlink="http://www.w3.org/1999/xlink" x="0px" y="0px"
	 viewBox="0 0 322.2 61.6" style="enable-background:new 0 0 322.2 61.6;" xml:space="preserve">
<style type="text/css">
	.st0{fill:#002A4D;}
	.st1{fill:#23AFE6;}
</style>
<g>
	<path class="st0" d="M210,13.1c0,0-0.8-0.3-1.7-0.3c-3.9,0-7.3,1.9-9.5,5.1v-3.7c0-0.3-0.3-0.6-0.6-0.6h-8.3
		c-0.3,0-0.6,0.3-0.6,0.6v34.1c0,0.3,0.3,0.6,0.6,0.6h8.3c0.3,0,0.6-0.3,0.6-0.6V34.5c0-2.1,0.1-3.8,0.6-5.3
		c1.5-4.9,5.4-6.7,8.5-6.7c1.1,0,1.8,0.1,1.8,0.1c0.2,0,0.4,0,0.5-0.1c0.1-0.1,0.2-0.3,0.2-0.5v-8.3C210.4,13.4,210.3,13.2,210,13.1
		z"/>
	<path class="st0" d="M81,12.8h-9.7c-0.3,0-0.6,0.3-0.6,0.6v9.7C72.8,18.5,76.4,14.8,81,12.8z"/>
	<path class="st0" d="M88.9,12.8c-10,0-18.1,8.1-18.1,18.1c0,10,8.1,18.1,18.1,18.1s18.1-8.1,18.1-18.1
		C106.9,20.9,98.8,12.8,88.9,12.8z M89,40.5c-5.2,0-9.4-4.2-9.4-9.4c0-5.2,4.2-9.4,9.4-9.4s9.4,4.2,9.4,9.4
		C98.4,36.2,94.2,40.5,89,40.5z"/>
	<path class="st0" d="M169.3,12.8c-10.4,0-17.6,7.4-17.6,18.1c0,10.5,7.8,18.1,18.6,18.1c8.5,0,13.6-4.7,13.9-4.9
		c0.2-0.2,0.3-0.5,0.1-0.7l-3.2-6c-0.1-0.2-0.2-0.3-0.4-0.3c-0.2,0-0.4,0-0.5,0.1c0,0-4.2,3.4-9.2,3.4c-5.2,0-8.7-2.9-9.3-7.8h22.4
		c0.3,0,0.6-0.2,0.6-0.6c0-0.1,0.2-2.1,0.2-3.1C184.7,19.2,178.7,12.8,169.3,12.8z M161.8,25.9c0.9-3.7,3.4-5.7,7.2-5.7
		c3.4,0,5.6,2.2,6,5.7H161.8z"/>
	<path class="st0" d="M17,27.1c-2.8-1.1-5.3-2.1-5.3-3.6c0-1.8,2-2.4,3.6-2.4c4.8,0,8.8,2.9,8.8,2.9c0.1,0.1,0.3,0.2,0.5,0.2
		c0.2,0,0.4-0.2,0.4-0.3l2-6.4c0.1-0.2,0.1-0.5-0.1-0.7c-0.2-0.2-3.9-4-11.7-4C7.3,12.8,2,17,2,23.2c0,6.8,6,9.3,10.8,11.2
		c2.9,1.2,5.5,2.2,5.5,3.8c0,1.7-1.9,2.4-3.8,2.4c-5.1,0-10.5-3.7-10.5-3.7c-0.1-0.1-0.3-0.2-0.5-0.2c-0.2,0-0.4,0.1-0.5,0.3L1,43.1
		c-0.2,0.2-0.1,0.6,0.1,0.8C1.3,44.1,6,49,14.5,49c7.9,0,13.4-4.4,13.4-10.6C27.9,31.5,21.6,28.9,17,27.1z"/>
	<path class="st0" d="M51.2,12.8c-5.1,0-8.2,2.3-9.8,4c0-0.1,0-0.3,0-0.4v-2.2c0-0.3-0.3-0.6-0.6-0.6h-8.2c-0.3,0-0.6,0.3-0.6,0.6
		v46.4c0,0.3,0.3,0.6,0.6,0.6h8.2c0.3,0,0.6-0.3,0.6-0.6V46.4c0-0.4,0-0.8,0-1.1c1.3,1.3,4.3,3.7,9.3,3.7c9.4,0,15.9-7.4,15.9-18.1
		C66.6,20.1,60.4,12.8,51.2,12.8z M49.2,40.5c-5.3,0-7.7-5-7.7-9.7c0-7.3,4-9.9,7.8-9.9c4.6,0,7.7,4,7.7,9.9
		C57,36.6,53.8,40.5,49.2,40.5z"/>
	<path class="st0" d="M127.6,39.9c-0.2,0-0.6,0-0.9,0c-2.3,0-6.2-0.7-6.2-5.7V21.9h5.5l2.3-7.1c-0.1-0.2-0.3-0.4-0.6-0.4h-7.2V7.7
		V5.9V5.8c0-0.3-0.3-0.6-0.6-0.6h-8.2c-0.3,0-0.6,0.3-0.6,0.6v0.5v1.4v27.6c0,11.9,10.2,13.2,14.6,13.2c0.8,0,1.3,0,1.9-0.1l0.2,0
		c0.3,0,0.6-0.3,0.6-0.6v-7.3C128.3,40.1,127.9,39.8,127.6,39.9z"/>
	<path class="st0" d="M149.7,39.9c-0.2,0-0.5,0-0.8,0c-2.3,0-6-0.7-6-5.7V1.5c0,0,0,0,0,0V1.4c0-0.3-0.3-0.6-0.6-0.6H134
		c-0.3,0-0.6,0.3-0.6,0.6v0.5v1.5v31.9c0,11.9,10.2,13.2,14.5,13.2c0.7,0,1.1,0,1.6-0.1l0.3,0c0.3,0,0.6-0.3,0.6-0.6v-7.3
		C150.4,40.1,150,39.8,149.7,39.9z"/>
</g>
<g>
	<g>
		<path class="st1" d="M240.6,42.9c0.2,0.3,0.3,0.6,0,1c-2.7,3.2-6.7,5.1-11.1,5.1c-9,0-16.3-7.8-16.3-17.7c0-10,7.3-17.7,16.3-17.7
			c4.4,0,8.4,1.9,11.1,5.1c0.3,0.3,0.2,0.7,0,1l-3.9,4.6c-0.2,0.3-0.6,0.3-0.9,0c-1.7-1.6-3.8-2.6-6.4-2.6c-4.7,0-8.3,4.1-8.3,9.5
			c0,5.4,3.6,9.4,8.3,9.4c2.6,0,4.7-1,6.4-2.6c0.3-0.3,0.7-0.2,0.9,0.1L240.6,42.9z"/>
	</g>
	<path class="st1" d="M264.7,13.9c0,0-0.8-0.3-1.6-0.3c-3.6,0-6.7,1.9-8.7,5.2v-4.5c0-0.3-0.3-0.6-0.6-0.6h-7.6
		c-0.3,0-0.6,0.3-0.6,0.6v34.1c0,0.3,0.3,0.6,0.6,0.6h7.6c0.3,0,0.6-0.3,0.6-0.6V35.4c0-2.1,0.1-3.8,0.5-5.4c1.4-5,5-6.7,7.8-6.7
		c1,0,1.6,0.1,1.6,0.1c0.2,0,0.3,0,0.5-0.1c0.1-0.1,0.2-0.3,0.2-0.5v-8.4C265.1,14.3,264.9,14,264.7,13.9z"/>
	<path class="st1" d="M309.3,13.6c-5.1,0-8.8,2.7-11.1,6.4c-2-4.1-5.5-6.4-9.7-6.4c-4.4,0-7.7,2.6-9.8,6.2v-3.7v-1.8v-0.1
		c0-0.3-0.2-0.6-0.6-0.6h-7.6c-0.3,0-0.6,0.2-0.6,0.6v0.5v1.4v0.1c0,0,0,0,0,0v11v0.5v0.6v1v6.9v11.8v0.4v0.1c0,0.3,0.2,0.6,0.6,0.6
		h0.4h6.6h0.6c0.3,0,0.6-0.2,0.6-0.6v-0.5v-1.5V36.1v-0.7c0,0,0,0,0,0v-0.5v-1.5v-1.1l0-3.4c0-1.7,2-6.7,6.7-6.7
		c3.1,0,5.8,2,5.8,7.7l0,3v3.2v12.1v0.1c0,0.3,0.2,0.6,0.6,0.6h0.5h6.6h0.5c0.3,0,0.6-0.2,0.6-0.6v-0.5v-1.5V36.1v-6.6l0-0.7
		c0-2.5,2.1-6.6,6.8-6.6c2.9,0,5.6,2,5.7,7.4v6.5v12.1v0.1c0,0.3,0.2,0.6,0.6,0.6h0.6h6.6h0.4c0.3,0,0.6-0.2,0.6-0.6v-0.5v0v-1.5
		V36.1v-7.9v-0.1C321.4,18.9,316.5,13.5,309.3,13.6z"/>
</g>
</svg>
